{
    "asset" : {
        "generator" : "Khronos glTF Blender I/O v1.5.17",
        "version" : "2.0"
    },
    "scene" : 0,
    "scenes" : [
        {
            "name" : "Scene",
            "nodes" : [
                0,
                1,
                2,
                3,
                4,
                5
            ]
        }
    ],
    "nodes" : [
        {
            "mesh" : 0,
            "name" : "Hotspot_Display",
            "scale" : [
                0.0042390902526676655,
                0.0042390902526676655,
                0.0042390902526676655
            ],
            "translation" : [
                0,
                0.07166462391614914,
                -0.002583213383331895
            ]
        },
        {
            "mesh" : 1,
            "name" : "Hotspot_Battery",
            "rotation" : [
                0,
                1,
                0,
                7.549790126404332e-08
            ],
            "scale" : [
                0.0034993209410458803,
                0.0034993209410458803,
                0.0034993209410458803
            ],
            "translation" : [
                0,
                0.07166462391614914,
                -0.005503865424543619
            ]
        },
        {
            "mesh" : 2,
            "name" : "Hotspot_Camera",
            "rotation" : [
                0,
                1,
                0,
                7.549790126404332e-08
            ],
            "scale" : [
                0.002500011585652828,
                0.002500011585652828,
                0.002500011585652828
            ],
            "translation" : [
                0.02380816824734211,
                0.12021652609109879,
                -0.005612046457827091
            ]
        },
        {
            "mesh" : 3,
            "name" : "mesh_R0",
            "rotation" : [
                0.7071068286895752,
                0,
                0,
                0.7071067094802856
            ],
            "scale" : [
                0.009999999776482582,
                0.009999999776482582,
                0.009999999776482582
            ]
        },
        {
            "name" : "Light",
            "rotation" : [
                0.16907575726509094,
                0.7558803558349609,
                -0.27217137813568115,
                0.570947527885437
            ],
            "translation" : [
                4.076245307922363,
                5.903861999511719,
                -1.0054539442062378
            ]
        },
        {
            "name" : "Camera",
            "rotation" : [
                0.483536034822464,
                0.33687159419059753,
                -0.20870360732078552,
                0.7804827094078064
            ],
            "translation" : [
                7.358891487121582,
                4.958309173583984,
                6.925790786743164
            ]
        }
    ],
    "materials" : [
        {
            "doubleSided" : true,
            "name" : "lambert9",
            "pbrMetallicRoughness" : {
                "baseColorFactor" : [
                    0.5,
                    0.5,
                    0.5,
                    1
                ],
                "metallicFactor" : 0,
                "roughnessFactor" : 0.5527864098548889
            }
        },
        {
            "doubleSided" : true,
            "name" : "Case",
            "pbrMetallicRoughness" : {
                "baseColorTexture" : {
                    "index" : 0
                },
                "metallicRoughnessTexture" : {
                    "index" : 1
                },
                "roughnessFactor" : 0.26070719957351685
            }
        },
        {
            "doubleSided" : true,
            "name" : "Backplate",
            "normalTexture" : {
                "index" : 2
            },
            "pbrMetallicRoughness" : {
                "baseColorTexture" : {
                    "index" : 3
                },
                "metallicRoughnessTexture" : {
                    "index" : 4
                },
                "roughnessFactor" : 0.5527864098548889
            }
        },
        {
            "doubleSided" : true,
            "name" : "Screen",
            "pbrMetallicRoughness" : {
                "baseColorTexture" : {
                    "index" : 5
                },
                "metallicFactor" : 0,
                "roughnessFactor" : 0.5527864098548889
            }
        }
    ],
    "meshes" : [
        {
            "name" : "Mesh.001",
            "primitives" : [
                {
                    "attributes" : {
                        "POSITION" : 0,
                        "NORMAL" : 1,
                        "TEXCOORD_0" : 2
                    },
                    "indices" : 3,
                    "material" : 0
                }
            ]
        },
        {
            "name" : "Mesh.002",
            "primitives" : [
                {
                    "attributes" : {
                        "POSITION" : 4,
                        "NORMAL" : 5,
                        "TEXCOORD_0" : 6
                    },
                    "indices" : 3,
                    "material" : 0
                }
            ]
        },
        {
            "name" : "Mesh.003",
            "primitives" : [
                {
                    "attributes" : {
                        "POSITION" : 7,
                        "NORMAL" : 8,
                        "TEXCOORD_0" : 9
                    },
                    "indices" : 3,
                    "material" : 0
                }
            ]
        },
        {
            "name" : "Mesh.004",
            "primitives" : [
                {
                    "attributes" : {
                        "POSITION" : 10,
                        "NORMAL" : 11,
                        "TEXCOORD_0" : 12
                    },
                    "indices" : 13,
                    "material" : 1
                },
                {
                    "attributes" : {
                        "POSITION" : 14,
                        "NORMAL" : 15,
                        "TEXCOORD_0" : 16
                    },
                    "indices" : 17,
                    "material" : 2
                },
                {
                    "attributes" : {
                        "POSITION" : 18,
                        "NORMAL" : 19,
                        "TEXCOORD_0" : 20
                    },
                    "indices" : 21,
                    "material" : 3
                }
            ]
        }
    ],
    "textures" : [
        {
            "sampler" : 0,
            "source" : 0
        },
        {
            "sampler" : 0,
            "source" : 1
        },
        {
            "sampler" : 0,
            "source" : 2
        },
        {
            "sampler" : 0,
            "source" : 0
        },
        {
            "sampler" : 0,
            "source" : 1
        },
        {
            "sampler" : 0,
            "source" : 3
        }
    ],
    "images" : [
        {
            "bufferView" : 14,
            "mimeType" : "image/png",
            "name" : "tex_S22_Pink_Diffuse"
        },
        {
            "bufferView" : 15,
            "mimeType" : "image/png",
            "name" : "tex_S22_Glossiness"
        },
        {
            "bufferView" : 20,
            "mimeType" : "image/png",
            "name" : "tex_S22_Normal"
        },
        {
            "bufferView" : 25,
            "mimeType" : "image/png",
            "name" : "tex_S22_Black_Diffuse"
        }
    ],
    "accessors" : [
        {
            "bufferView" : 0,
            "componentType" : 5126,
            "count" : 3,
            "max" : [
                0.5,
                0,
                0.5
            ],
            "min" : [
                -0.5,
                0,
                -0.5
            ],
            "type" : "VEC3"
        },
        {
            "bufferView" : 1,
            "componentType" : 5126,
            "count" : 3,
            "type" : "VEC3"
        },
        {
            "bufferView" : 2,
            "componentType" : 5126,
            "count" : 3,
            "type" : "VEC2"
        },
        {
            "bufferView" : 3,
            "componentType" : 5123,
            "count" : 3,
            "type" : "SCALAR"
        },
        {
            "bufferView" : 4,
            "componentType" : 5126,
            "count" : 3,
            "max" : [
                0.5,
                0,
                0.5
            ],
            "min" : [
                -0.5,
                0,
                -0.5
            ],
            "type" : "VEC3"
        },
        {
            "bufferView" : 5,
            "componentType" : 5126,
            "count" : 3,
            "type" : "VEC3"
        },
        {
            "bufferView" : 6,
            "componentType" : 5126,
            "count" : 3,
            "type" : "VEC2"
        },
        {
            "bufferView" : 7,
            "componentType" : 5126,
            "count" : 3,
            "max" : [
                0.5,
                0,
                0.5
            ],
            "min" : [
                -0.5,
                0,
                -0.5
            ],
            "type" : "VEC3"
        },
        {
            "bufferView" : 8,
            "componentType" : 5126,
            "count" : 3,
            "type" : "VEC3"
        },
        {
            "bufferView" : 9,
            "componentType" : 5126,
            "count" : 3,
            "type" : "VEC2"
        },
        {
            "bufferView" : 10,
            "componentType" : 5126,
            "count" : 43497,
            "max" : [
                3.5727999210357666,
                0,
                0.3250202536582947
            ],
            "min" : [
                -3.527804374694824,
                -0.8751680850982666,
                -14.2738037109375
            ],
            "type" : "VEC3"
        },
        {
            "bufferView" : 11,
            "componentType" : 5126,
            "count" : 43497,
            "type" : "VEC3"
        },
        {
            "bufferView" : 12,
            "componentType" : 5126,
            "count" : 43497,
            "type" : "VEC2"
        },
        {
            "bufferView" : 13,
            "componentType" : 5123,
            "count" : 130338,
            "type" : "SCALAR"
        },
        {
            "bufferView" : 16,
            "componentType" : 5126,
            "count" : 1401,
            "max" : [
                3.3939502239227295,
                -0.7158969044685364,
                0.19099998474121094
            ],
            "min" : [
                -3.3938000202178955,
                -0.764901876449585,
                -14.139800071716309
            ],
            "type" : "VEC3"
        },
        {
            "bufferView" : 17,
            "componentType" : 5126,
            "count" : 1401,
            "type" : "VEC3"
        },
        {
            "bufferView" : 18,
            "componentType" : 5126,
            "count" : 1401,
            "type" : "VEC2"
        },
        {
            "bufferView" : 19,
            "componentType" : 5123,
            "count" : 5964,
            "type" : "SCALAR"
        },
        {
            "bufferView" : 21,
            "componentType" : 5126,
            "count" : 319,
            "max" : [
                3.22379994392395,
                0,
                0
            ],
            "min" : [
                -3.22379994392395,
                0,
                -13.969799995422363
            ],
            "type" : "VEC3"
        },
        {
            "bufferView" : 22,
            "componentType" : 5126,
            "count" : 319,
            "type" : "VEC3"
        },
        {
            "bufferView" : 23,
            "componentType" : 5126,
            "count" : 319,
            "type" : "VEC2"
        },
        {
            "bufferView" : 24,
            "componentType" : 5123,
            "count" : 756,
            "type" : "SCALAR"
        }
    ],
    "bufferViews" : [
        {
            "buffer" : 0,
            "byteLength" : 36,
            "byteOffset" : 0
        },
        {
            "buffer" : 0,
            "byteLength" : 36,
            "byteOffset" : 36
        },
        {
            "buffer" : 0,
            "byteLength" : 24,
            "byteOffset" : 72
        },
        {
            "buffer" : 0,
            "byteLength" : 6,
            "byteOffset" : 96
        },
        {
            "buffer" : 0,
            "byteLength" : 36,
            "byteOffset" : 104
        },
        {
            "buffer" : 0,
            "byteLength" : 36,
            "byteOffset" : 140
        },
        {
            "buffer" : 0,
            "byteLength" : 24,
            "byteOffset" : 176
        },
        {
            "buffer" : 0,
            "byteLength" : 36,
            "byteOffset" : 200
        },
        {
            "buffer" : 0,
            "byteLength" : 36,
            "byteOffset" : 236
        },
        {
            "buffer" : 0,
            "byteLength" : 24,
            "byteOffset" : 272
        },
        {
            "buffer" : 0,
            "byteLength" : 521964,
            "byteOffset" : 296
        },
        {
            "buffer" : 0,
            "byteLength" : 521964,
            "byteOffset" : 522260
        },
        {
            "buffer" : 0,
            "byteLength" : 347976,
            "byteOffset" : 1044224
        },
        {
            "buffer" : 0,
            "byteLength" : 260676,
            "byteOffset" : 1392200
        },
        {
            "buffer" : 0,
            "byteLength" : 541858,
            "byteOffset" : 1652876
        },
        {
            "buffer" : 0,
            "byteLength" : 15799,
            "byteOffset" : 2194736
        },
        {
            "buffer" : 0,
            "byteLength" : 16812,
            "byteOffset" : 2210536
        },
        {
            "buffer" : 0,
            "byteLength" : 16812,
            "byteOffset" : 2227348
        },
        {
            "buffer" : 0,
            "byteLength" : 11208,
            "byteOffset" : 2244160
        },
        {
            "buffer" : 0,
            "byteLength" : 11928,
            "byteOffset" : 2255368
        },
        {
            "buffer" : 0,
            "byteLength" : 54211,
            "byteOffset" : 2267296
        },
        {
            "buffer" : 0,
            "byteLength" : 3828,
            "byteOffset" : 2321508
        },
        {
            "buffer" : 0,
            "byteLength" : 3828,
            "byteOffset" : 2325336
        },
        {
            "buffer" : 0,
            "byteLength" : 2552,
            "byteOffset" : 2329164
        },
        {
            "buffer" : 0,
            "byteLength" : 1512,
            "byteOffset" : 2331716
        },
        {
            "buffer" : 0,
            "byteLength" : 539681,
            "byteOffset" : 2333228
        }
    ],
    "samplers" : [
        {
            "magFilter" : 9729,
            "minFilter" : 9987
        }
    ],
    "buffers" : [
        {
            "byteLength" : 2872912,
            "uri" : "data:application/octet-stream;base64,"
        }
    ]
}
